PathFileType   4   (X/Y/Z)																																																																																																																	
DataRate	CameraRate	NumFrames	NumMarkers	Units	OrigDataRate	OrigDataStartFrame	OrigNumFrames																																																																																																										
120	120	7	37	mm	120	1	106																																																																																																										
Frame#	Time	midhip	hip_r	hip_l	knee_r	knee_l	ankle_r	ankle_l	midasis	asis_r	asis_l	psis_r	psis_l	epicondLat_r	epicondLat_l	epicondMed_r	epicondMed_l	malleolusLat_r	malleolusLat_l	malleolusMedv_r	malleolusMedv_l	neck	subclavicle_r	subclavicle_l	sternalnotch	xyphoidprocess	thighwand_r	thighwand_l	upperleg1_r	upperleg1_l	upperleg2_r	upperleg2_l	shankwand_r	shankwand_l	lowerleg1_r	lowerleg1_l	toe_r	toe_l																																																																											
 	 	X1	Y1	Z1	X2	Y2	Z2	X3	Y3	Z3	X4	Y4	Z4	X5	Y5	Z5	X6	Y6	Z6	X7	Y7	Z7	X8	Y8	Z8	X9	Y9	Z9	X10	Y10	Z10	X11	Y11	Z11	X12	Y12	Z12	X13	Y13	Z13	X14	Y14	Z14	X15	Y15	Z15	X16	Y16	Z16	X17	Y17	Z17	X18	Y18	Z18	X19	Y19	Z19	X20	Y20	Z20	X21	Y21	Z21	X22	Y22	Z22	X23	Y23	Z23	X24	Y24	Z24	X25	Y25	Z25	X26	Y26	Z26	X27	Y27	Z27	X28	Y28	Z28	X29	Y29	Z29	X30	Y30	Z30	X31	Y31	Z31	X32	Y32	Z32	X33	Y33	Z33	X34	Y34	Z34	X35	Y35	Z35	X36	Y36	Z36	X37	Y37	Z37	

	1	0.11667	485.046	870.345	-267.728	474.794	852.54	-225.141	497.152	865.012	-328.59	378.599	443.622	-192.356	663.512	483.509	-310.262	54.822	178.238	-183.872	644.515	68.002	-309.978	562.23	953.546	-248.957	540.749	941.563	-149.565	583.712	965.53	-348.35	357.071	979.63	-244.11	371.489	987.099	-328.111	376.065	448.965	-133.151	676.355	486.322	-368.291	399.019	442.716	-252.183	641.236	478.68	-263.237	49.035	186.469	-147.228	646.013	67.906	-349.45	60.428	181.636	-212.935	651.11	74.148	-279.657	425.231	1437.794	-269.006	503.7719253	1379.218273	-185.9435597	528.654	1364.373	-337.081	495.50604	1375.340516	-266.5510741	527.7288555	1175.457918	-259.7679249	414.347	547.332	-53.794	759.265	650.912	-306.667	458.248	597.58	-121.863	679.106	679.003	-364.107	448.15	515.272	-140.407	695.725	593.345	-352.972	110.464	234.146	-79.813	754.193	175.843	-293.494	156.23	273.531	-143.755	692.371	226.969	-310.938	70.225	56.307	-196.535	772.539	42.644	-314.15
	2	0.125	498.561	871.644	-269.002	488.538	853.844	-225.934	510.615	866.734	-329.392	402.471	442.153	-192.395	670.331	483.089	-310.861	73.893	183.85	-183.196	644.401	68.007	-310.293	575.766	955.067	-249.597	554.591	942.704	-150.366	596.94	967.431	-348.827	370.667	980.708	-243.949	384.599	988.716	-327.999	399.639	447.566	-133.209	683.663	485.842	-368.782	424.274	441.242	-253.038	648.168	478.367	-264.552	68.486	192.036	-146.484	646.127	67.845	-349.755	78.287	185.859	-213.053	651.147	74.133	-279.96	438.697	1439.224	-269.944	517.5398664	1380.133273	-186.0810906	542.149	1365.813	-338.077	509.2420886	1376.309016	-266.8650395	541.4958891	1176.307918	-260.1590028	435.072	546.476	-54.186	768.917	649.039	-306.074	477.779	597.298	-121.587	689.516	678.824	-363.733	470.282	514.694	-140.572	704.818	592.895	-353.142	131.214	238.097	-79.3	755.952	174.12	-293.24	170.465	277.245	-142.289	694.961	226.2	-311.279	85.578	61.117	-195.387	772.56	42.476	-314.446
	3	0.13333	512.034	873.131	-270.311	502.089	855.195	-226.262	523.901	868.299	-329.75	426.824	441.116	-192.477	676.59	482.576	-311.531	93.934	189.447	-183.191	644.293	68.027	-310.622	589.159	956.548	-249.949	568.266	943.996	-150.82	610.052	969.101	-349.077	384.096	981.818	-243.879	397.561	990.373	-327.972	423.692	446.514	-133.305	690.517	485.359	-369.311	449.884	439.779	-253.656	654.36	478.252	-265.984	88.909	197.451	-146.385	646.178	67.794	-350.076	98.046	191.942	-212.719	651.133	74.186	-280.414	452.13	1440.73	-270.796	531.3078075	1381.048273	-186.2186214	555.35	1367.288	-339.016	522.9781373	1377.277516	-267.1790049	555.2629227	1177.157918	-260.5500807	456.154	545.844	-54.591	777.807	647.294	-305.063	497.81	597.327	-121.761	699.458	678.769	-363.375	492.871	514.448	-140.841	713.495	592.595	-353.191	152.861	241.74	-79.286	757.53	172.526	-293.205	192.546	281.127	-141.962	697.373	225.494	-311.792	104.305	66.177	-194.091	772.544	42.345	-314.752
	4	0.14167	525.532	874.836	-271.571	515.45	856.602	-226.204	536.994	869.735	-329.744	451.541	440.588	-192.607	682.389	482.02	-312.175	114.97	194.796	-183.876	644.235	68.052	-310.94	602.399	958.012	-250.095	581.776	945.441	-150.978	623.022	970.583	-349.212	397.376	982.951	-243.863	410.417	992.061	-327.983	448.113	445.893	-133.443	696.966	484.876	-369.791	475.826	438.918	-254.254	659.97	478.219	-267.319	110.29	202.515	-146.963	646.195	67.754	-350.39	118.838	197.496	-213.454	651.123	74.322	-280.934	465.501	1442.322	-271.6	545.0922768	1381.964371	-186.3563174	568.436	1368.808	-339.843	536.7306758	1378.247179	-267.4933472	569.0464834	1178.008939	-260.941628	477.515	545.518	-54.978	786.033	645.683	-303.765	518.345	597.754	-122.113	708.91	678.653	-362.974	515.846	514.846	-141.15	721.726	592.291	-353.073	175.303	245.011	-79.796	758.971	171.032	-293.386	214.928	284.643	-142.426	699.621	224.862	-312.368	126.221	71.136	-192.648	772.521	42.232	-315.042
	5	0.15	539.044	876.727	-272.726	528.609	858.075	-225.895	549.896	871.087	-329.504	476.5	440.586	-192.785	687.774	481.448	-312.765	137.026	199.643	-185.175	644.234	68.078	-311.22	615.475	959.476	-250.121	595.092	947.016	-150.912	635.859	971.936	-349.33	410.533	984.116	-243.854	423.19	993.776	-327.983	472.797	445.74	-133.625	703.017	484.375	-370.205	501.385	438.946	-254.739	665.421	478.041	-268.609	132.623	207.016	-148.158	646.185	67.725	-350.671	140.856	201.938	-215.075	651.197	74.459	-281.261	478.866	1443.973	-272.331	558.860218	1382.879371	-186.4938482	581.616	1370.33	-340.497	550.4667244	1379.215679	-267.8073125	582.813517	1178.858939	-261.3327059	499.101	545.545	-55.333	793.727	644.143	-302.33	539.213	598.69	-122.365	717.959	678.423	-362.416	538.815	515.882	-141.367	729.683	591.904	-352.807	198.475	247.837	-80.795	760.3	169.617	-293.754	238.408	287.229	-144.073	701.715	224.242	-312.937	150.892	75.702	-191.059	772.503	42.127	-315.296
	6	0.15833	552.44	878.658	-273.761	541.496	859.621	-225.493	562.576	872.415	-329.171	501.591	441.079	-193.004	692.744	480.86	-313.346	160.153	203.708	-186.938	644.268	68.112	-311.445	628.331	960.955	-250.104	608.119	948.688	-150.691	648.544	973.223	-349.517	423.583	985.333	-243.809	435.88	995.514	-327.933	497.648	446.047	-133.843	708.645	483.832	-370.605	526.651	439.55	-255.071	671.867	477.065	-269.807	155.931	210.73	-149.832	646.15	67.709	-350.898	164.441	205.024	-217.071	651.347	74.566	-281.444	492.233	1445.659	-272.983	572.6281591	1383.794371	-186.6313791	594.729	1371.852	-341.126	564.2027731	1380.184179	-268.1212779	596.5805506	1179.708939	-261.7237838	520.831	545.941	-55.656	801.033	642.579	-300.901	560.378	600.099	-122.574	725.865	677.928	-361.619	561.779	517.304	-141.514	737.269	591.421	-352.519	222.345	250.152	-82.197	761.534	168.271	-294.247	262.763	289.36	-145.894	703.601	223.636	-313.495	177.758	79.685	-189.367	772.502	42.024	-315.517
	7	0.16667	565.569	880.458	-274.676	554.174	861.249	-225.068	575.016	873.766	-328.827	526.758	442.007	-193.259	697.343	480.263	-313.942	184.383	206.732	-188.971	644.328	68.148	-311.614	640.983	962.491	-250.145	620.956	950.463	-150.442	661.011	974.519	-349.849	436.531	986.619	-243.692	448.477	997.259	-327.81	522.586	446.769	-134.097	713.856	483.237	-371.028	551.626	440.717	-255.381	680.707	474.451	-270.891	180.227	213.458	-151.803	646.097	67.697	-351.072	189.488	206.84	-219.23	651.482	74.707	-281.678	505.456	1447.389	-273.649	586.4126284	1384.71047	-186.769075	607.648	1373.393	-341.74	577.9553116	1381.153841	-268.4356202	610.3641113	1180.559959	-262.1153311	542.617	546.688	-55.944	808.081	640.913	-299.616	581.742	601.879	-122.763	731.666	677.042	-360.368	584.689	519.12	-141.645	744.319	590.833	-352.315	246.869	251.909	-83.872	762.68	166.985	-294.818	287.578	291.286	-147.483	705.389	223.057	-313.997	206.329	82.993	-187.672	772.519	41.921	-315.717
